#tb 0: 1/57
#media_type 0: video
#codec_id 0: rawvideo
#dimensions 0: 320x240
#sar 0: 1/1
0,          0,          0,        1,   115200, 0xeba70ff3
0,          1,          1,        1,   115200, 0xeba70ff3
0,          2,          2,        1,   115200, 0x7ed43658
0,          3,          3,        1,   115200, 0x7ed43658
0,          4,          4,        1,   115200, 0x7ed43658
0,          5,          5,        1,   115200, 0x8cd87e03
0,          6,          6,        1,   115200, 0x8cd87e03
0,          7,          7,        1,   115200, 0xbb1ca0c4
0,          8,          8,        1,   115200, 0xbb1ca0c4
0,          9,          9,        1,   115200, 0x5fdfd474
0,         10,         10,        1,   115200, 0x5fdfd474
0,         11,         11,        1,   115200, 0x5418f45b
0,         12,         12,        1,   115200, 0x5418f45b
0,         13,         13,        1,   115200, 0x5418f45b
0,         14,         14,        1,   115200, 0xb16cf929
0,         15,         15,        1,   115200, 0xb16cf929
0,         16,         16,        1,   115200, 0xe1f7f824
0,         17,         17,        1,   115200, 0xe1f7f824
0,         18,         18,        1,   115200, 0x9872fad9
0,         19,         19,        1,   115200, 0x9872fad9
0,         20,         20,        1,   115200, 0x9872fad9
0,         21,         21,        1,   115200, 0x02a4f220
0,         22,         22,        1,   115200, 0x02a4f220
0,         23,         23,        1,   115200, 0x9ae2fcc9
0,         24,         24,        1,   115200, 0x9ae2fcc9
0,         25,         25,        1,   115200, 0x9b56f029
0,         26,         26,        1,   115200, 0x9b56f029
0,         27,         27,        1,   115200, 0x4dbbf2e0
0,         28,         28,        1,   115200, 0x4dbbf2e0
0,         29,         29,        1,   115200, 0x4dbbf2e0
0,         30,         30,        1,   115200, 0x1953f828
0,         31,         31,        1,   115200, 0x1953f828
0,         32,         32,        1,   115200, 0xc42403b8
0,         33,         33,        1,   115200, 0xc42403b8
0,         34,         34,        1,   115200, 0xeb4615f6
0,         35,         35,        1,   115200, 0xeb4615f6
0,         36,         36,        1,   115200, 0xcce711f5
0,         37,         37,        1,   115200, 0xcce711f5
0,         38,         38,        1,   115200, 0xcce711f5
0,         39,         39,        1,   115200, 0x297b12cf
0,         40,         40,        1,   115200, 0x297b12cf
0,         41,         41,        1,   115200, 0x625f10e9
0,         42,         42,        1,   115200, 0x625f10e9
0,         43,         43,        1,   115200, 0xaa341025
0,         44,         44,        1,   115200, 0xaa341025
0,         45,         45,        1,   115200, 0xaa341025
0,         46,         46,        1,   115200, 0x139821b1
0,         47,         47,        1,   115200, 0x139821b1
0,         48,         48,        1,   115200, 0x1e7e09a0
0,         49,         49,        1,   115200, 0x1e7e09a0
0,         50,         50,        1,   115200, 0xa7d80776
0,         51,         51,        1,   115200, 0xa7d80776
0,         52,         52,        1,   115200, 0xb41eeaac
0,         53,         53,        1,   115200, 0xb41eeaac
0,         54,         54,        1,   115200, 0xb41eeaac
0,         55,         55,        1,   115200, 0xe00dd55d
0,         56,         56,        1,   115200, 0xe00dd55d
